<svg width="43" height="52" viewBox="0 0 43 52" fill="none" xmlns="http://www.w3.org/2000/svg">
<path d="M9.15677 41.5194C11.3604 41.5194 13.1467 39.7382 13.1467 37.5409C13.1467 35.3437 11.3604 33.5625 9.15677 33.5625C6.95319 33.5625 5.16684 35.3437 5.16684 37.5409C5.16684 39.7382 6.95319 41.5194 9.15677 41.5194Z" stroke="#FFD166" stroke-width="1.5" stroke-miterlimit="10"/>
<path d="M16.8221 46.7424V50.5102H1.49136V46.7424C1.49136 45.2186 2.74436 43.9692 4.27252 43.9692H14.041C15.5691 43.9692 16.8221 45.2186 16.8221 46.7424Z" stroke="#FFD166" stroke-width="1.5" stroke-miterlimit="10"/>
<path d="M30.723 38.8395C33.8222 38.8395 36.3345 36.3344 36.3345 33.2442C36.3345 30.154 33.8222 27.6489 30.723 27.6489C27.6239 27.6489 25.1116 30.154 25.1116 33.2442C25.1116 36.3344 27.6239 38.8395 30.723 38.8395Z" stroke="#FFD166" stroke-width="1.5" stroke-miterlimit="10"/>
<path d="M41.5086 45.2135V50.5148H19.9424V45.2135C19.9424 43.0675 21.7064 41.3135 23.8537 41.3135H37.5973C39.7495 41.3135 41.5086 43.0724 41.5086 45.2135Z" stroke="#FFD166" stroke-width="1.5" stroke-miterlimit="10"/>
<path d="M22.6744 20.9656C22.6744 21.093 22.6695 21.2155 22.6645 21.3379C22.522 24.3414 20.6401 26.894 17.9965 28.0111C17.0777 28.3982 12.2966 31.3183 12.2966 31.3183C12.2966 31.3183 12.9452 28.3982 12.0264 28.0111C9.27469 26.8499 7.3436 24.1307 7.3436 20.9656C7.3436 16.7471 10.7783 13.3223 15.009 13.3223C15.3726 13.3223 15.7313 13.3468 16.0802 13.3958C19.8097 13.9151 22.6744 17.1096 22.6744 20.9656Z" stroke="#FFD166" stroke-width="1.5" stroke-miterlimit="10"/>
<path d="M36.418 11.7004C36.418 15.9287 33.8383 19.5593 30.1629 21.1076C28.9394 21.622 29.8042 25.5221 29.8042 25.5221C29.8042 25.5221 24.5563 22.3178 22.6646 21.3379C22.6646 21.2154 22.6744 21.0929 22.6744 20.9655C22.6744 17.1095 19.8097 13.915 16.0802 13.3957C15.9868 12.8469 15.9377 12.2786 15.9377 11.7004C15.9377 6.06103 20.5222 1.48975 26.1779 1.48975C31.8335 1.48975 36.418 6.06103 36.418 11.7004Z" stroke="#FFD166" stroke-width="1.5" stroke-miterlimit="10"/>
<path d="M21.0037 8.09961H31.2685" stroke="#FFD166" stroke-width="1.5" stroke-miterlimit="10"/>
<path d="M21.0037 10.8042H31.2685" stroke="#FFD166" stroke-width="1.5" stroke-miterlimit="10"/>
<path d="M21.0037 13.5088H26.3548" stroke="#FFD166" stroke-width="1.5" stroke-miterlimit="10"/>
</svg>
