<svg width="45" height="45" viewBox="0 0 45 45" fill="none" xmlns="http://www.w3.org/2000/svg">
<g clip-path="url(#clip0_458_418)">
<path d="M38.1619 31.7107C40.1965 31.7107 41.8465 30.0607 41.8465 28.0262V7.76291C41.8465 5.72834 40.1965 4.07837 38.1619 4.07837H18.7457C19.3918 5.19849 19.7334 6.4685 19.7369 7.76291H38.1619V28.0273H21.5786V31.7119M28.9465 13.2903V16.9749H17.8952V40.9238H14.2106V29.8713H10.5261V40.9238H6.84155V26.1868H4.07843V16.976C4.07843 14.9414 5.7284 13.2915 7.76297 13.2915H28.9476M16.0523 7.76524C16.0523 9.79981 14.4024 11.4498 12.3678 11.4498C10.3332 11.4498 8.68324 9.79981 8.68324 7.76524C8.68324 5.73066 10.3332 4.08069 12.3678 4.08069C14.4024 4.08069 16.0523 5.73066 16.0523 7.76524Z" fill="#4BC9F0"/>
</g>
<defs>
<clipPath id="clip0_458_418">
<rect width="45" height="45" fill="white"/>
</clipPath>
</defs>
</svg>
