<svg width="41" height="41" viewBox="0 0 41 41" fill="none" xmlns="http://www.w3.org/2000/svg">
<g clip-path="url(#clip0_458_406)">
<path d="M36.0016 4.99829H5.14273C3.24938 4.99829 1.71384 6.53384 1.71384 8.42719V13.5711H5.14273V8.42719H36.0016V32.427H24.0011V35.8559H36.0016C37.8949 35.8559 39.4305 34.3204 39.4305 32.427V8.42719C39.4305 6.53384 37.8949 4.99829 36.0016 4.99829ZM1.71505 30.7144V35.8572H6.85779C6.85779 33.0165 4.55569 30.7144 1.71505 30.7144ZM1.71505 23.8566V27.2855C6.44904 27.2855 10.2867 31.1232 10.2867 35.8572H13.7144C13.7144 29.2298 8.34118 23.8566 1.71384 23.8566M1.71384 16.9976V20.4265C10.2357 20.4265 17.1433 27.334 17.1433 35.8559H20.5722C20.5722 25.4407 12.1291 16.9976 1.71384 16.9976ZM18.8571 18.8667V22.298L24.8574 25.5729L30.8576 22.298V18.8667L24.8574 22.1416L18.8571 18.8667ZM24.8574 10.141L15.4282 15.2838L24.8574 20.4265L34.2865 15.2838L24.8574 10.141Z" fill="#9757D7"/>
</g>
<defs>
<clipPath id="clip0_458_406">
<rect width="41" height="41" fill="white"/>
</clipPath>
</defs>
</svg>
